<svg width="18" height="14" viewBox="0 0 18 14" fill="none" xmlns="http://www.w3.org/2000/svg">
<path d="M1.49996 13.8635C1.26385 13.8635 1.0658 13.7835 0.905795 13.6235C0.745795 13.4635 0.666073 13.2657 0.666629 13.0302V11.3635C0.666629 11.1274 0.746629 10.9293 0.906629 10.7693C1.06663 10.6093 1.26441 10.5296 1.49996 10.5302H2.3333V13.8635H1.49996ZM3.16663 13.8635V10.5302H6.49996L7.2083 8.90515L8.54163 11.8218L7.8333 13.4052C7.76385 13.5579 7.65968 13.6727 7.5208 13.7493C7.38191 13.826 7.23607 13.864 7.08329 13.8635H3.16663ZM15.6666 13.8635V10.5302H16.5C16.7361 10.5302 16.9341 10.6102 17.0941 10.7702C17.2541 10.9302 17.3338 11.1279 17.3333 11.3635V13.0302C17.3333 13.2663 17.2533 13.4643 17.0933 13.6243C16.9333 13.7843 16.7355 13.864 16.5 13.8635H15.6666ZM10.9166 13.8635C10.7639 13.8635 10.618 13.8252 10.4791 13.7485C10.3402 13.6718 10.2361 13.5574 10.1666 13.4052L5.16663 2.46765C4.93052 1.93988 4.93413 1.48488 5.17746 1.10265C5.42079 0.720433 5.8408 0.5296 6.43746 0.530155C6.61802 0.530155 6.79524 0.589322 6.96913 0.707655C7.14302 0.825988 7.26441 0.961266 7.3333 1.11349L8.99996 4.86349L10.6666 1.11349C10.7361 0.960711 10.8577 0.825155 11.0316 0.706822C11.2055 0.588489 11.3894 0.5296 11.5833 0.530155C12.1666 0.530155 12.58 0.721267 12.8233 1.10349C13.0666 1.48571 13.07 1.94043 12.8333 2.46765L10.3333 7.90516L11.5 10.5302H14.8333V13.8635H10.9166Z" fill="white" fill-opacity="0.8"/>
</svg>
